<?xml version="1.0" standalone="no"?>
<!DOCTYPE svg PUBLIC "-//W3C//DTD SVG 20010904//EN"
 "http://www.w3.org/TR/2001/REC-SVG-20010904/DTD/svg10.dtd">
<svg version="1.0" xmlns="http://www.w3.org/2000/svg"
 width="1024.000000pt" height="1536.000000pt" viewBox="0 0 1024.000000 1536.000000"
 preserveAspectRatio="xMidYMid meet">

<g transform="translate(0.000000,1536.000000) scale(0.100000,-0.100000)"
fill="#000000" stroke="none">
<path d="M4750 12329 c-145 -12 -427 -54 -595 -90 -448 -94 -961 -286 -1330
-499 -835 -480 -1518 -1243 -1900 -2125 -279 -642 -414 -1370 -376 -2031 51
-893 309 -1682 772 -2364 619 -911 1499 -1565 2515 -1869 1092 -327 2259 -230
3281 273 463 228 836 493 1212 861 852 835 1337 1957 1377 3188 23 706 -143
1470 -460 2114 -233 474 -499 846 -871 1219 -363 364 -713 617 -1167 845 -564
282 -1118 430 -1793 479 -163 12 -513 11 -665 -1z m830 -214 c487 -49 956
-175 1384 -372 763 -350 1384 -883 1840 -1581 696 -1062 886 -2375 525 -3625
-387 -1342 -1412 -2436 -2728 -2913 -789 -286 -1621 -337 -2454 -149 -489 111
-1027 351 -1484 664 -680 465 -1252 1162 -1567 1909 -304 722 -418 1528 -320
2269 89 687 313 1296 681 1862 310 476 759 924 1248 1246 180 118 283 176 497
279 517 250 1004 378 1618 426 158 12 573 4 760 -15z"/>
<path  d="M8619 9831 c-23 -24 -29 -38 -29 -74 0 -45 -1 -45 -85 -108 -53 -41
-172 -109 -327 -188 -231 -118 -249 -130 -358 -225 -63 -55 -169 -154 -235
-221 l-121 -120 -39 -113 c-21 -62 -41 -111 -44 -109 -49 28 -124 56 -151 57
-93 5 -79 13 -511 -311 -343 -258 -418 -310 -439 -306 -34 7 -85 -16 -106 -47
-12 -19 -15 -38 -11 -69 7 -51 40 -83 95 -92 20 -4 60 -17 87 -30 28 -13 68
-29 90 -35 22 -7 44 -16 48 -20 16 -15 -220 -23 -345 -11 -141 12 -427 79
-583 136 -55 20 -129 47 -165 59 -36 13 -157 79 -270 148 -321 196 -398 242
-500 300 -102 59 -544 240 -778 319 -85 28 -155 58 -174 74 -30 25 -35 26
-112 20 -46 -4 -180 0 -311 9 -335 23 -572 35 -909 46 l-299 9 -27 26 c-40 38
-102 35 -141 -6 -25 -27 -44 -34 -146 -56 -257 -54 -482 -140 -556 -211 -90
-86 -143 -206 -134 -298 6 -54 34 -121 61 -143 9 -8 16 -27 16 -43 0 -46 28
-95 65 -112 43 -21 53 -20 98 4 l38 20 237 -55 c130 -30 253 -60 272 -66 114
-39 642 -276 685 -309 28 -20 163 -144 302 -275 255 -240 296 -271 458 -353
83 -42 288 -192 548 -400 49 -39 157 -112 241 -161 83 -50 168 -108 188 -128
45 -47 154 -264 339 -677 71 -160 124 -246 254 -412 202 -258 208 -263 490
-453 321 -216 391 -251 587 -296 81 -18 236 -23 262 -8 14 8 27 8 42 1 35 -16
90 -1 118 33 60 71 16 179 -73 179 -37 0 -47 7 -150 106 -132 126 -196 208
-256 328 -52 101 -55 119 -22 111 12 -3 90 -22 172 -42 142 -35 159 -37 315
-38 173 0 215 8 313 57 49 24 124 93 143 130 8 15 20 28 28 28 20 0 46 33 57
73 21 78 -51 152 -125 127 -19 -6 -42 -20 -51 -30 -26 -28 -84 -25 -181 9
-212 73 -494 280 -693 508 -103 118 -105 116 127 130 327 21 448 52 813 210
195 85 215 96 394 224 208 147 323 253 397 364 103 156 342 648 417 860 54
151 135 321 213 448 46 75 100 139 231 275 109 113 181 180 201 187 54 18 87
87 67 140 -5 13 1 39 19 80 92 204 132 448 109 666 -11 113 -15 126 -40 152
-39 39 -99 38 -140 -2z m89 -320 c1 -68 -1 -127 -5 -131 -4 -4 -46 0 -92 9
-130 25 -131 38 -10 177 44 50 70 72 84 71 19 -2 20 -10 23 -126z m-230 -11
c-7 -11 -23 -20 -35 -20 -30 0 -29 6 5 24 37 21 44 20 30 -4z m-161 -92 c-12
-30 -20 -34 -100 -54 -48 -12 -87 -20 -87 -18 0 3 188 102 198 103 1 1 -4 -13
-11 -31z m370 -102 c4 -4 -44 -178 -63 -226 -9 -25 -24 -53 -32 -63 -14 -16
-19 -7 -57 116 -23 74 -45 139 -49 145 -4 6 0 25 8 41 l15 29 88 -20 c48 -10
89 -20 90 -22z m-367 7 c-1 -7 -55 -50 -377 -297 -69 -53 -107 -76 -114 -69
-15 15 78 260 105 275 22 12 339 96 369 97 9 1 17 -2 17 -6z m155 -179 l44
-139 -27 -28 c-20 -21 -27 -38 -27 -73 -1 -43 -4 -47 -51 -77 -27 -17 -102
-67 -168 -110 -78 -51 -117 -72 -113 -60 3 10 63 152 135 317 112 259 146 325
159 312 2 -2 23 -66 48 -142z m-202 -21 c-30 -71 -86 -203 -125 -295 -68 -158
-73 -167 -102 -171 -28 -5 -39 3 -112 76 -79 80 -81 83 -76 122 4 39 11 45
219 205 118 91 219 171 225 177 30 36 21 0 -29 -114z m-485 -77 c-15 -41 -29
-61 -49 -72 -27 -13 -90 -17 -88 -4 1 8 151 141 155 138 2 -2 -6 -30 -18 -62z
m-142 -150 c1 -1 4 -22 7 -47 l6 -45 -96 -79 c-53 -43 -93 -70 -89 -59 5 10
22 55 38 99 16 44 41 95 54 113 21 27 30 31 52 26 15 -4 27 -7 28 -8z m-5036
-61 c396 -20 777 -44 820 -52 25 -4 -47 -17 -249 -45 l-284 -38 -26 24 c-40
38 -77 43 -126 16 l-41 -22 -215 55 c-318 83 -294 75 -229 76 31 1 188 -6 350
-14z m-260 -86 c162 -39 298 -74 302 -78 4 -4 -160 -26 -365 -50 -204 -24
-386 -46 -404 -48 -25 -4 -34 -1 -48 20 -17 26 -16 28 34 111 44 72 55 85 84
90 19 3 42 13 53 21 10 8 26 12 34 10 8 -2 148 -36 310 -76z m-608 34 c-22
-22 -61 -37 -197 -74 -120 -33 -175 -44 -187 -38 -10 6 -18 13 -18 18 0 14
349 115 417 120 7 1 0 -11 -15 -26z m69 -73 c-32 -53 -48 -71 -69 -76 -56 -11
-91 -49 -101 -109 -6 -34 -15 -42 -139 -121 l-133 -84 183 191 c162 169 286
282 297 273 2 -2 -15 -35 -38 -74z m6081 -17 c77 -76 77 -77 71 -120 -4 -31
-1 -50 11 -68 17 -26 16 -28 -28 -102 l-45 -75 -10 39 c-6 21 -29 112 -52 203
-22 91 -42 173 -45 183 -11 35 22 15 98 -60z m-297 -297 c-52 -187 -98 -343
-102 -347 -4 -4 -19 -10 -33 -14 -20 -4 -56 14 -175 89 -146 91 -150 95 -153
131 -2 25 3 43 15 57 15 17 418 348 508 417 16 12 31 19 32 14 2 -4 -40 -161
-92 -347z m779 322 c-16 -18 -67 -73 -114 -123 -47 -49 -106 -122 -130 -162
-25 -40 -48 -72 -51 -73 -4 0 -3 19 2 43 4 23 8 45 9 50 0 4 7 7 15 7 29 0 63
46 70 94 7 46 9 48 114 121 58 41 108 74 110 75 3 0 -8 -15 -25 -32z m-4798
-44 c14 -4 38 -4 54 -1 27 6 46 -8 212 -155 215 -189 209 -183 183 -173 -21 8
-594 168 -899 250 -137 38 -173 51 -155 56 13 4 134 22 269 39 135 18 247 34
249 36 2 2 17 -8 33 -21 16 -14 41 -28 54 -31z m4253 -383 c-12 -15 -19 -40
-19 -65 0 -42 0 -42 -117 -128 -98 -72 -120 -84 -131 -73 -12 10 2 70 84 357
l99 345 51 -206 c52 -204 52 -206 33 -230z m-3798 236 c689 -367 893 -477 884
-477 -6 0 -141 45 -300 101 -160 56 -298 103 -308 106 -10 3 -25 23 -34 45
-20 50 -61 72 -122 65 l-45 -5 -145 127 c-190 165 -224 198 -190 177 15 -8
132 -71 260 -139z m144 38 c255 -99 309 -123 384 -174 65 -45 311 -238 311
-245 0 -3 -39 17 -87 43 -91 50 -577 310 -785 420 -65 35 -118 64 -118 67 0 2
21 -5 48 -15 26 -10 137 -53 247 -96z m-2735 -90 c-96 -96 -175 -173 -177
-171 -2 1 4 39 13 83 15 75 19 83 53 105 24 15 41 37 52 68 l17 45 103 26 c57
14 106 24 108 22 3 -2 -74 -82 -169 -178z m5883 131 l59 -26 -139 -115 c-76
-63 -144 -115 -150 -115 -7 0 -13 9 -13 21 0 41 42 225 57 248 14 21 20 23 71
18 32 -2 83 -16 115 -31z m-4596 -34 l40 -39 47 -344 c26 -189 49 -355 51
-369 4 -18 0 -29 -16 -38 -26 -16 4 -35 -369 238 -162 119 -370 270 -462 336
-140 99 -166 122 -161 139 3 11 6 21 7 21 2 3 770 92 797 93 17 1 39 -12 66
-37z m766 -135 c307 -84 559 -157 560 -162 1 -6 -88 -55 -198 -110 -250 -126
-845 -415 -854 -415 -3 0 -22 15 -41 33 l-35 32 -48 362 -48 362 33 30 c21 19
40 28 53 25 11 -3 271 -74 578 -157z m3549 28 c-17 -95 -19 -99 -47 -107 -17
-4 -41 -21 -55 -37 -25 -29 -29 -30 -150 -39 -69 -5 -126 -8 -128 -7 -1 2 86
68 195 148 108 81 198 145 199 144 2 -2 -5 -47 -14 -102z m-5819 -59 c-17 -93
-19 -96 -43 -96 -48 0 -66 129 -29 201 l20 41 33 -38 32 -37 -13 -71z m471 19
c11 -8 30 -15 43 -15 18 0 35 -18 76 -82 72 -112 177 -285 177 -291 0 -3 -27
5 -60 19 -32 13 -178 51 -322 84 -145 34 -271 64 -280 68 -13 5 24 34 155 119
94 61 177 112 182 112 6 0 19 -6 29 -14z m223 -66 c191 -134 853 -617 853
-624 0 -6 -389 127 -487 167 -60 25 -103 48 -103 56 0 23 -57 72 -83 72 -31 0
-37 8 -146 185 -51 83 -101 162 -112 178 -11 15 -17 27 -15 27 3 0 45 -28 93
-61z m6084 -52 c-13 -13 -14 5 -3 43 l7 25 3 -29 c2 -16 -1 -33 -7 -39z
m-1086 -87 c0 -9 -95 -69 -228 -147 l-228 -132 -47 17 c-44 17 -47 20 -50 58
l-3 40 98 71 c129 92 130 93 215 94 40 1 105 5 143 9 89 9 100 8 100 -10z
m-1876 -105 c123 -74 124 -75 84 -75 -36 0 -52 9 -139 81 -105 86 -135 114
-94 86 14 -9 81 -51 149 -92z m-994 -350 c-42 -220 -95 -498 -118 -618 -30
-160 -46 -221 -57 -227 -13 -7 -112 73 -438 351 -384 328 -422 362 -422 390 0
33 -17 25 820 430 l245 119 23 -23 22 -23 -75 -399z m625 311 c200 -69 367
-130 371 -134 4 -4 9 -21 11 -37 3 -28 -13 -45 -215 -228 l-218 -197 -47 0
-47 0 -141 348 c-147 361 -155 391 -101 379 12 -2 186 -61 387 -131z m2579 5
l144 -89 1 -67 1 -67 -123 -132 c-68 -72 -128 -131 -135 -131 -8 0 -20 85 -40
279 -27 277 -27 295 3 296 3 0 70 -40 149 -89z m-2912 -283 c135 -336 141
-353 127 -379 -8 -16 -14 -42 -14 -59 0 -23 -10 -39 -42 -68 -23 -20 -127
-115 -232 -209 -151 -137 -195 -172 -211 -167 -11 4 -21 8 -23 9 -3 3 29 172
168 885 72 365 69 354 78 346 3 -4 70 -165 149 -358z m2652 351 c20 -7 31 -18
31 -30 0 -11 12 -133 26 -271 21 -206 23 -253 12 -257 -7 -2 -29 -21 -48 -41
-40 -43 12 -36 -610 -90 -190 -16 -376 -32 -415 -36 -84 -7 -95 -21 126 163
l155 130 120 7 c176 10 224 29 224 88 0 40 -15 65 -52 88 l-30 18 148 87 c82
48 174 103 204 121 62 38 65 38 109 23z m869 -156 c-3 -111 -8 -143 -22 -165
-10 -16 -24 -28 -30 -28 -7 0 -53 20 -103 44 -85 42 -91 46 -97 81 -4 20 -5
39 -3 42 23 22 234 163 245 163 12 0 14 -23 10 -137z m74 82 c-6 -34 -12 -32
-12 6 0 16 4 28 9 25 4 -3 6 -17 3 -31z m-2583 -142 c4 -3 -2 -3 -12 0 -11 4
-30 10 -43 13 -13 3 -24 10 -24 15 0 9 68 -15 79 -28z m137 -84 c109 -22 200
-42 202 -44 7 -6 71 -319 67 -323 -6 -6 -22 7 -268 207 -125 101 -227 188
-227 193 0 13 13 11 226 -33z m2190 -50 c54 -28 103 -55 108 -59 5 -5 0 -21
-12 -37 -11 -15 -72 -116 -137 -223 -64 -107 -119 -197 -121 -199 -2 -2 -4
115 -4 261 l0 266 33 20 c17 11 32 21 33 21 0 1 45 -22 100 -50z m-2556 31
c18 -11 271 -933 258 -938 -4 -2 -166 97 -360 220 -346 220 -351 223 -353 258
-2 19 -4 43 -6 52 -3 12 63 79 216 217 121 110 222 200 225 200 3 0 12 -4 20
-9z m219 -94 c397 -321 366 -292 363 -336 -2 -25 3 -50 14 -69 l17 -29 -127
-196 c-71 -108 -133 -199 -138 -202 -5 -4 -14 -2 -18 2 -14 15 -260 905 -253
917 10 16 30 3 142 -87z m2121 -185 l0 -269 -32 -11 c-32 -11 -33 -11 -128 84
-89 88 -96 98 -92 129 2 19 -1 43 -8 55 -10 20 0 33 112 150 68 71 129 130
136 130 9 1 12 -59 12 -268z m-1550 209 c63 -15 114 -30 114 -34 -1 -6 -127
-191 -160 -235 -2 -2 -14 -1 -27 3 -21 5 -26 18 -51 138 -15 73 -30 141 -33
151 -4 16 -1 18 19 12 12 -5 75 -20 138 -35z m-3203 -64 c54 -18 84 -33 88
-45 8 -28 47 -59 90 -74 36 -13 49 -28 132 -160 50 -81 88 -147 83 -147 -8 0
-39 28 -315 284 -190 176 -194 180 -175 174 8 -3 52 -17 97 -32z m3368 -60
c-49 -46 -91 -83 -93 -81 -2 2 23 40 55 84 54 74 61 80 93 80 l35 0 -90 -83z
m-2705 -387 c152 -129 298 -253 325 -276 l50 -43 -125 59 c-233 110 -274 133
-308 172 -20 23 -48 43 -70 49 -34 9 -46 24 -142 177 -58 92 -107 172 -109
178 -5 11 -6 13 379 -316z m3630 197 c7 -9 8 -21 3 -29 -4 -8 -134 -181 -288
-385 l-280 -372 -42 0 -42 0 -113 158 c-360 506 -351 491 -334 517 8 13 28 26
43 29 15 3 181 19 368 36 187 16 408 36 490 44 83 7 157 14 166 15 9 0 22 -6
29 -13z m272 -143 c87 -90 96 -102 101 -145 l6 -46 -106 -86 c-74 -60 -110
-83 -117 -76 -10 10 -34 274 -35 387 -1 51 3 57 44 62 6 0 54 -43 107 -96z
m-192 -163 c10 -161 10 -195 -1 -199 -30 -10 -69 -60 -69 -89 0 -28 -3 -30
-255 -130 -255 -102 -275 -109 -275 -94 0 4 80 111 178 238 97 127 226 295
286 374 100 131 110 142 117 120 4 -14 13 -113 19 -220z m509 141 c-12 -23
-24 -39 -27 -37 -2 2 7 22 20 44 12 23 24 39 26 37 2 -2 -6 -22 -19 -44z
m-3077 -2 c27 -14 85 -14 102 0 11 9 89 -36 362 -209 192 -121 350 -223 352
-228 3 -11 -1301 -2 -1312 9 -6 5 9 24 35 48 25 22 133 118 240 215 107 97
195 176 197 176 2 0 13 -5 24 -11z m1455 -172 c67 -94 172 -241 234 -326 61
-85 107 -157 102 -162 -5 -5 -173 35 -376 88 l-368 97 -19 38 -18 37 132 201
c171 261 149 259 313 27z m1493 -36 c0 -26 -56 -71 -117 -95 -37 -14 -68 -25
-69 -23 -1 1 32 30 73 65 69 56 113 77 113 53z m-3743 -185 c72 -32 78 -37 81
-66 l3 -32 -83 63 c-46 34 -85 64 -87 66 -13 10 17 -1 86 -31z m3523 -11 c-14
-17 -30 -20 -30 -6 0 5 8 12 18 14 9 3 19 5 21 6 2 0 -2 -6 -9 -14z m-2133
-95 l212 0 15 -31 16 -31 -157 -232 c-86 -127 -233 -343 -325 -481 -93 -137
-172 -251 -176 -252 -25 -9 -68 59 -152 242 -139 300 -196 409 -242 454 -22
23 -44 41 -48 41 -14 0 -240 270 -240 287 0 15 39 16 443 10 243 -4 537 -7
654 -7z m1933 -22 c-1 -7 -29 -43 -63 -80 -62 -67 -62 -67 -272 -156 -294
-125 -295 -125 -295 -107 0 8 6 19 13 24 6 6 25 21 40 33 16 13 32 38 35 57 7
33 9 34 262 137 140 57 261 103 268 104 6 0 12 -6 12 -12z m-1434 -22 c27 -8
188 -51 358 -95 169 -44 310 -81 311 -83 1 -2 6 -13 9 -25 6 -18 -8 -33 -92
-101 -55 -44 -108 -85 -119 -90 -11 -6 -110 -12 -223 -14 l-204 -3 -36 95
c-20 52 -51 139 -70 192 -33 95 -34 97 -15 117 22 25 19 25 81 7z m-1596 -67
c29 -33 51 -62 49 -64 -2 -2 -44 23 -93 55 l-90 58 35 5 c19 2 37 5 40 5 3 1
30 -25 59 -59z m1366 -165 c-14 -93 -35 -245 -47 -337 l-22 -168 -33 -15 c-31
-15 -64 -65 -64 -96 0 -9 -79 -46 -227 -104 -124 -49 -230 -90 -235 -92 -4 -2
-8 3 -8 10 0 12 262 408 534 808 111 162 118 172 122 167 2 -2 -7 -79 -20
-173z m152 -14 l64 -180 -17 -45 c-21 -54 -10 -92 38 -129 29 -23 31 -29 64
-232 21 -128 30 -211 24 -217 -5 -5 -59 25 -140 79 -129 87 -131 89 -131 126
0 29 -8 47 -34 75 l-34 38 23 165 c60 440 69 500 74 500 3 0 35 -81 69 -180z
m820 -32 c5 -7 7 -27 5 -45 -5 -31 -7 -32 -87 -46 -44 -9 -82 -14 -83 -13 -3
2 141 114 148 115 4 1 11 -5 17 -11z m-544 -476 c36 -38 66 -74 66 -81 0 -15
-93 -201 -101 -201 -5 0 -22 97 -65 380 l-6 35 20 -32 c11 -17 50 -62 86 -101z
m469 -370 c169 -100 154 -104 -159 -47 -215 39 -251 49 -266 68 -10 12 -18 25
-18 28 0 4 20 49 45 102 l46 96 117 -88 c64 -49 170 -120 235 -159z m-999 187
c19 -11 37 -28 40 -37 13 -41 166 -695 166 -707 0 -8 -4 -16 -9 -20 -6 -3
-101 72 -213 168 -112 95 -272 230 -356 301 l-153 129 233 93 c128 51 238 93
245 93 6 1 28 -8 47 -20z m273 -94 l100 -70 -5 -40 c-3 -33 1 -47 22 -72 14
-17 26 -42 26 -56 0 -14 -23 -90 -51 -169 -28 -78 -55 -156 -61 -173 -6 -16
-17 -36 -24 -44 -11 -13 -14 -13 -18 0 -10 29 -166 689 -166 703 0 8 6 16 13
19 14 5 26 -2 164 -98z m-546 -357 c368 -311 418 -353 418 -359 1 -3 -52 9
-116 27 -65 19 -127 34 -137 34 -27 0 -94 74 -250 275 -199 255 -212 278 -118
196 31 -27 123 -105 203 -173z m1114 158 c292 -52 294 -54 141 -131 -91 -46
-105 -50 -165 -49 -44 1 -86 9 -125 25 -59 24 -60 25 -88 93 -30 75 -35 106
-15 106 6 0 120 -20 252 -44z m-300 -79 c24 -47 21 -56 -16 -37 -14 8 -19 21
-19 52 0 48 1 47 35 -15z m872 18 c7 -20 -20 -50 -76 -87 -56 -35 -68 -35 -76
1 -4 20 0 39 16 65 20 34 23 36 75 36 40 0 56 -4 61 -15z m-206 -103 c5 -14 6
-29 1 -34 -12 -12 -232 -23 -232 -12 0 5 37 28 82 50 71 35 87 40 111 31 16
-5 33 -21 38 -35z m-712 -210 c12 -24 21 -45 19 -46 -2 -1 -36 -17 -76 -35
-59 -27 -75 -31 -88 -21 -17 15 -17 16 38 168 l41 114 22 -69 c12 -37 32 -88
44 -111z m131 -192 c71 -88 154 -172 214 -218 16 -12 27 -24 25 -26 -2 -2
-114 46 -249 105 -225 99 -245 110 -242 131 2 13 7 26 10 30 7 6 151 66 162
67 3 1 39 -40 80 -89z m-527 0 c46 -11 61 -19 72 -40 16 -31 77 -64 103 -56 9
3 29 -2 43 -12 36 -24 187 -155 188 -164 2 -19 -154 68 -314 174 -99 66 -173
118 -165 115 8 -2 41 -10 73 -17z m532 -205 c110 -48 205 -92 210 -97 7 -7
-28 -9 -102 -5 l-111 5 -79 68 c-43 38 -94 82 -113 98 -44 35 -45 36 195 -69z"/>
</g>
</svg>
